<svg width="1394px" height="257px" viewBox="0 0 1394 257" version="1.1" xmlns="http://www.w3.org/2000/svg" xmlns:xlink="http://www.w3.org/1999/xlink">
    <defs>
        <linearGradient x1="50.0426235%" y1="3.83211679%" x2="49.9573765%" y2="100%" id="linearGradient-1">
            <stop stop-color="#08CEA4" offset="0%"></stop>
            <stop stop-color="#C0FECF" stop-opacity="0" offset="100%"></stop>
        </linearGradient>
    </defs>
    <g id="Symbols" stroke="none" stroke-width="1" fill="none" fill-rule="evenodd">
        <g id="LInes" fill="url(#linearGradient-1)">
            <g id="Group-2">
                <rect id="Rectangle" x="190" y="0" width="4" height="137" rx="2"></rect>
                <rect id="Rectangle-Copy-6" x="200" y="10" width="4" height="137" rx="2"></rect>
                <rect id="Rectangle-Copy-9" x="180" y="10" width="4" height="137" rx="2"></rect>
                <rect id="Rectangle-Copy-7" x="210" y="20" width="4" height="137" rx="2"></rect>
                <rect id="Rectangle-Copy-8" x="170" y="20" width="4" height="137" rx="2"></rect>
                <rect id="Rectangle-Copy-10" x="160" y="10" width="4" height="137" rx="2"></rect>
                <rect id="Rectangle-Copy-11" x="150" y="20" width="4" height="137" rx="2"></rect>
                <rect id="Rectangle-Copy-12" x="140" y="30" width="4" height="137" rx="2"></rect>
                <rect id="Rectangle-Copy-13" x="130" y="40" width="4" height="137" rx="2"></rect>
                <rect id="Rectangle-Copy-14" x="120" y="30" width="4" height="137" rx="2"></rect>
                <rect id="Rectangle-Copy-15" x="110" y="40" width="4" height="137" rx="2"></rect>
                <rect id="Rectangle-Copy-16" x="100" y="50" width="4" height="137" rx="2"></rect>
                <rect id="Rectangle-Copy-17" x="90" y="60" width="4" height="137" rx="2"></rect>
                <rect id="Rectangle-Copy-18" x="80" y="70" width="4" height="137" rx="2"></rect>
                <rect id="Rectangle-Copy-19" x="70" y="60" width="4" height="137" rx="2"></rect>
                <rect id="Rectangle-Copy-20" x="60" y="50" width="4" height="137" rx="2"></rect>
                <rect id="Rectangle-Copy-21" x="50" y="60" width="4" height="137" rx="2"></rect>
                <rect id="Rectangle-Copy-22" x="40" y="50" width="4" height="137" rx="2"></rect>
                <rect id="Rectangle-Copy-23" x="30" y="40" width="4" height="137" rx="2"></rect>
                <rect id="Rectangle-Copy-24" x="20" y="30" width="4" height="137" rx="2"></rect>
                <rect id="Rectangle-Copy-25" x="10" y="40" width="4" height="137" rx="2"></rect>
                <rect id="Rectangle-Copy-26" x="0" y="50" width="4" height="137" rx="2"></rect>
                <rect id="Rectangle-Copy-48" x="410" y="20" width="4" height="137" rx="2"></rect>
                <rect id="Rectangle-Copy-47" x="420" y="30" width="4" height="137" rx="2"></rect>
                <rect id="Rectangle-Copy-46" x="400" y="20" width="4" height="137" rx="2"></rect>
                <rect id="Rectangle-Copy-45" x="430" y="40" width="4" height="137" rx="2"></rect>
                <rect id="Rectangle-Copy-44" x="390" y="30" width="4" height="137" rx="2"></rect>
                <rect id="Rectangle-Copy-43" x="380" y="20" width="4" height="137" rx="2"></rect>
                <rect id="Rectangle-Copy-42" x="370" y="30" width="4" height="137" rx="2"></rect>
                <rect id="Rectangle-Copy-41" x="360" y="40" width="4" height="137" rx="2"></rect>
                <rect id="Rectangle-Copy-40" x="350" y="40" width="4" height="137" rx="2"></rect>
                <rect id="Rectangle-Copy-39" x="340" y="30" width="4" height="137" rx="2"></rect>
                <rect id="Rectangle-Copy-38" x="330" y="40" width="4" height="137" rx="2"></rect>
                <rect id="Rectangle-Copy-37" x="320" y="50" width="4" height="137" rx="2"></rect>
                <rect id="Rectangle-Copy-36" x="310" y="50" width="4" height="137" rx="2"></rect>
                <rect id="Rectangle-Copy-35" x="300" y="60" width="4" height="137" rx="2"></rect>
                <rect id="Rectangle-Copy-34" x="290" y="50" width="4" height="137" rx="2"></rect>
                <rect id="Rectangle-Copy-33" x="280" y="40" width="4" height="137" rx="2"></rect>
                <rect id="Rectangle-Copy-32" x="270" y="50" width="4" height="137" rx="2"></rect>
                <rect id="Rectangle-Copy-31" x="260" y="40" width="4" height="137" rx="2"></rect>
                <rect id="Rectangle-Copy-30" x="250" y="30" width="4" height="137" rx="2"></rect>
                <rect id="Rectangle-Copy-29" x="240" y="30" width="4" height="137" rx="2"></rect>
                <rect id="Rectangle-Copy-81" x="610" y="50" width="4" height="137" rx="2"></rect>
                <rect id="Rectangle-Copy-80" x="620" y="50" width="4" height="137" rx="2"></rect>
                <rect id="Rectangle-Copy-79" x="600" y="50" width="4" height="137" rx="2"></rect>
                <rect id="Rectangle-Copy-68" x="630" y="60" width="4" height="137" rx="2"></rect>
                <rect id="Rectangle-Copy-67" x="590" y="50" width="4" height="137" rx="2"></rect>
                <rect id="Rectangle-Copy-66" x="580" y="41" width="4" height="137" rx="2"></rect>
                <rect id="Rectangle-Copy-65" x="570" y="50" width="4" height="137" rx="2"></rect>
                <rect id="Rectangle-Copy-64" x="560" y="60" width="4" height="137" rx="2"></rect>
                <rect id="Rectangle-Copy-61" x="550" y="60" width="4" height="137" rx="2"></rect>
                <rect id="Rectangle-Copy-60" x="540" y="50" width="4" height="137" rx="2"></rect>
                <rect id="Rectangle-Copy-59" x="530" y="60" width="4" height="137" rx="2"></rect>
                <rect id="Rectangle-Copy-58" x="520" y="70" width="4" height="137" rx="2"></rect>
                <rect id="Rectangle-Copy-57" x="510" y="70" width="4" height="137" rx="2"></rect>
                <rect id="Rectangle-Copy-56" x="500" y="80" width="4" height="137" rx="2"></rect>
                <rect id="Rectangle-Copy-55" x="490" y="70" width="4" height="137" rx="2"></rect>
                <rect id="Rectangle-Copy-53" x="480" y="60" width="4" height="137" rx="2"></rect>
                <rect id="Rectangle-Copy-52" x="470" y="70" width="4" height="137" rx="2"></rect>
                <rect id="Rectangle-Copy-51" x="460" y="60" width="4" height="137" rx="2"></rect>
                <rect id="Rectangle-Copy-99" x="790" y="60" width="4" height="137" rx="2"></rect>
                <rect id="Rectangle-Copy-98" x="800" y="60" width="4" height="137" rx="2"></rect>
                <rect id="Rectangle-Copy-97" x="780" y="50" width="4" height="137" rx="2"></rect>
                <rect id="Rectangle-Copy-96" x="810" y="60" width="4" height="137" rx="2"></rect>
                <rect id="Rectangle-Copy-95" x="770" y="50" width="4" height="137" rx="2"></rect>
                <rect id="Rectangle-Copy-94" x="760" y="41" width="4" height="137" rx="2"></rect>
                <rect id="Rectangle-Copy-93" x="750" y="50" width="4" height="137" rx="2"></rect>
                <rect id="Rectangle-Copy-92" x="740" y="60" width="4" height="137" rx="2"></rect>
                <rect id="Rectangle-Copy-91" x="730" y="60" width="4" height="137" rx="2"></rect>
                <rect id="Rectangle-Copy-90" x="720" y="50" width="4" height="137" rx="2"></rect>
                <rect id="Rectangle-Copy-89" x="710" y="60" width="4" height="137" rx="2"></rect>
                <rect id="Rectangle-Copy-88" x="700" y="70" width="4" height="137" rx="2"></rect>
                <rect id="Rectangle-Copy-87" x="690" y="70" width="4" height="137" rx="2"></rect>
                <rect id="Rectangle-Copy-86" x="680" y="80" width="4" height="137" rx="2"></rect>
                <rect id="Rectangle-Copy-85" x="670" y="70" width="4" height="137" rx="2"></rect>
                <rect id="Rectangle-Copy-84" x="660" y="60" width="4" height="137" rx="2"></rect>
                <rect id="Rectangle-Copy-83" x="650" y="70" width="4" height="137" rx="2"></rect>
                <rect id="Rectangle-Copy-82" x="640" y="60" width="4" height="137" rx="2"></rect>
                <rect id="Rectangle-Copy-117" x="970" y="80" width="4" height="137" rx="2"></rect>
                <rect id="Rectangle-Copy-116" x="980" y="80" width="4" height="137" rx="2"></rect>
                <rect id="Rectangle-Copy-115" x="960" y="80" width="4" height="137" rx="2"></rect>
                <rect id="Rectangle-Copy-114" x="990" y="90" width="4" height="137" rx="2"></rect>
                <rect id="Rectangle-Copy-113" x="950" y="80" width="4" height="137" rx="2"></rect>
                <rect id="Rectangle-Copy-112" x="940" y="71" width="4" height="137" rx="2"></rect>
                <rect id="Rectangle-Copy-111" x="930" y="60" width="4" height="137" rx="2"></rect>
                <rect id="Rectangle-Copy-110" x="920" y="70" width="4" height="137" rx="2"></rect>
                <rect id="Rectangle-Copy-109" x="910" y="70" width="4" height="137" rx="2"></rect>
                <rect id="Rectangle-Copy-108" x="900" y="60" width="4" height="137" rx="2"></rect>
                <rect id="Rectangle-Copy-107" x="890" y="70" width="4" height="137" rx="2"></rect>
                <rect id="Rectangle-Copy-106" x="880" y="80" width="4" height="137" rx="2"></rect>
                <rect id="Rectangle-Copy-105" x="870" y="80" width="4" height="137" rx="2"></rect>
                <rect id="Rectangle-Copy-104" x="860" y="90" width="4" height="137" rx="2"></rect>
                <rect id="Rectangle-Copy-103" x="850" y="80" width="4" height="137" rx="2"></rect>
                <rect id="Rectangle-Copy-102" x="840" y="70" width="4" height="137" rx="2"></rect>
                <rect id="Rectangle-Copy-101" x="830" y="80" width="4" height="137" rx="2"></rect>
                <rect id="Rectangle-Copy-100" x="820" y="70" width="4" height="137" rx="2"></rect>
                <rect id="Rectangle-Copy-50" x="450" y="50" width="4" height="137" rx="2"></rect>
                <rect id="Rectangle-Copy-49" x="440" y="50" width="4" height="137" rx="2"></rect>
                <rect id="Rectangle-Copy-137" x="1010" y="80" width="4" height="137" rx="2"></rect>
                <rect id="Rectangle-Copy-136" x="1020" y="70" width="4" height="137" rx="2"></rect>
                <rect id="Rectangle-Copy-135" x="1000" y="80" width="4" height="137" rx="2"></rect>
                <rect id="Rectangle-Copy-134" x="1030" y="80" width="4" height="137" rx="2"></rect>
                <rect id="Rectangle-Copy-133" x="1190" y="90" width="4" height="137" rx="2"></rect>
                <rect id="Rectangle-Copy-132" x="1180" y="81" width="4" height="137" rx="2"></rect>
                <rect id="Rectangle-Copy-131" x="1170" y="90" width="4" height="137" rx="2"></rect>
                <rect id="Rectangle-Copy-130" x="1160" y="100" width="4" height="137" rx="2"></rect>
                <rect id="Rectangle-Copy-129" x="1150" y="100" width="4" height="137" rx="2"></rect>
                <rect id="Rectangle-Copy-128" x="1140" y="90" width="4" height="137" rx="2"></rect>
                <rect id="Rectangle-Copy-127" x="1130" y="100" width="4" height="137" rx="2"></rect>
                <rect id="Rectangle-Copy-126" x="1120" y="110" width="4" height="137" rx="2"></rect>
                <rect id="Rectangle-Copy-125" x="1110" y="110" width="4" height="137" rx="2"></rect>
                <rect id="Rectangle-Copy-146" x="1270" y="60" width="4" height="137" rx="2"></rect>
                <rect id="Rectangle-Copy-145" x="1260" y="51" width="4" height="137" rx="2"></rect>
                <rect id="Rectangle-Copy-144" x="1250" y="60" width="4" height="137" rx="2"></rect>
                <rect id="Rectangle-Copy-143" x="1240" y="70" width="4" height="137" rx="2"></rect>
                <rect id="Rectangle-Copy-142" x="1230" y="70" width="4" height="137" rx="2"></rect>
                <rect id="Rectangle-Copy-141" x="1220" y="60" width="4" height="137" rx="2"></rect>
                <rect id="Rectangle-Copy-140" x="1210" y="70" width="4" height="137" rx="2"></rect>
                <rect id="Rectangle-Copy-139" x="1200" y="80" width="4" height="137" rx="2"></rect>
                <rect id="Rectangle-Copy-138" x="1190" y="80" width="4" height="137" rx="2"></rect>
                <rect id="Rectangle-Copy-155" x="1360" y="50" width="4" height="137" rx="2"></rect>
                <rect id="Rectangle-Copy-154" x="1350" y="41" width="4" height="137" rx="2"></rect>
                <rect id="Rectangle-Copy-153" x="1340" y="50" width="4" height="137" rx="2"></rect>
                <rect id="Rectangle-Copy-152" x="1330" y="60" width="4" height="137" rx="2"></rect>
                <rect id="Rectangle-Copy-151" x="1320" y="60" width="4" height="137" rx="2"></rect>
                <rect id="Rectangle-Copy-150" x="1310" y="50" width="4" height="137" rx="2"></rect>
                <rect id="Rectangle-Copy-149" x="1300" y="60" width="4" height="137" rx="2"></rect>
                <rect id="Rectangle-Copy-148" x="1290" y="70" width="4" height="137" rx="2"></rect>
                <rect id="Rectangle-Copy-147" x="1280" y="70" width="4" height="137" rx="2"></rect>
                <rect id="Rectangle-Copy-158" x="1390" y="40" width="4" height="137" rx="2"></rect>
                <rect id="Rectangle-Copy-157" x="1380" y="50" width="4" height="137" rx="2"></rect>
                <rect id="Rectangle-Copy-156" x="1370" y="40" width="4" height="137" rx="2"></rect>
                <rect id="Rectangle-Copy-124" x="1100" y="120" width="4" height="137" rx="2"></rect>
                <rect id="Rectangle-Copy-123" x="1090" y="110" width="4" height="137" rx="2"></rect>
                <rect id="Rectangle-Copy-122" x="1080" y="100" width="4" height="137" rx="2"></rect>
                <rect id="Rectangle-Copy-121" x="1070" y="110" width="4" height="137" rx="2"></rect>
                <rect id="Rectangle-Copy-120" x="1060" y="100" width="4" height="137" rx="2"></rect>
                <rect id="Rectangle-Copy-119" x="1050" y="90" width="4" height="137" rx="2"></rect>
                <rect id="Rectangle-Copy-118" x="1040" y="90" width="4" height="137" rx="2"></rect>
                <rect id="Rectangle-Copy-28" x="230" y="20" width="4" height="137" rx="2"></rect>
                <rect id="Rectangle-Copy-27" x="220" y="30" width="4" height="137" rx="2"></rect>
            </g>
        </g>
    </g>
</svg>